<svg width="64" height="64" viewBox="0 0 256 256" fill="none" xmlns="http://www.w3.org/2000/svg">
  <rect width="256" height="256" rx="56" fill="#050506"/>
  <g stroke="#FFFFFF" stroke-width="10" stroke-linecap="round" stroke-linejoin="round">
    <circle cx="128" cy="128" r="91"/>
    <path d="M60 181L78 155L128 137L174 158L196 201"/>
    <path d="M78 155L128 137L128 172"/>
    <path d="M128 172L174 158"/>
    <path d="M62 151L107 126L139 66C145 55 158 53 169 60L184 72L166 75L166 104C166 126 151 141 129 141C118 141 107 138 99 132"/>
    <path d="M106 126L141 109"/>
    <path d="M128 141V172"/>
  </g>
</svg>
